<?xml version="1.0" encoding="iso-8859-1"?>
<!-- Generator: Adobe Illustrator 18.0.0, SVG Export Plug-In . SVG Version: 6.00 Build 0)  -->
<!DOCTYPE svg PUBLIC "-//W3C//DTD SVG 1.1//EN" "http://www.w3.org/Graphics/SVG/1.1/DTD/svg11.dtd">
<svg version="1.1" id="Capa_1" xmlns="http://www.w3.org/2000/svg" xmlns:xlink="http://www.w3.org/1999/xlink" x="0px" y="0px"
	 viewBox="0 0 496.881 496.881" style="enable-background:new 0 0 496.881 496.881;" xml:space="preserve">
<path id="XMLID_558_" d="M489.624,43.593c9.619-9.533,9.683-25.07,0.15-34.682c-9.541-9.629-25.07-9.691-34.691-0.16
	L296.487,165.958H130.811V133.27c0-18.06-14.643-32.703-32.703-32.703c-18.06,0-32.703,14.643-32.703,32.703v32.688H32.703
	C14.642,165.958,0,180.599,0,198.659c0,18.061,14.642,32.703,32.703,32.703h32.702v165.781c0,18.061,14.643,32.703,32.703,32.703
	h165.765v32.686c0,18.061,14.643,32.703,32.703,32.703c18.06,0,32.703-14.643,32.703-32.703v-32.686h32.702
	c18.061,0,32.703-14.643,32.703-32.703c0-18.059-14.642-32.703-32.703-32.703h-32.702v-161.9L489.624,43.593z M230.509,231.362
	l-99.698,98.828v-98.828H230.509z M263.874,364.44H165.94l97.934-97.068V364.44z"/>
<g>
</g>
<g>
</g>
<g>
</g>
<g>
</g>
<g>
</g>
<g>
</g>
<g>
</g>
<g>
</g>
<g>
</g>
<g>
</g>
<g>
</g>
<g>
</g>
<g>
</g>
<g>
</g>
<g>
</g>
</svg>
